<?xml version="1.0" encoding="utf-8"?>
<svg width="94px" height="93px" viewBox="0 0 94 93" version="1.1" xmlns:xlink="http://www.w3.org/1999/xlink" xmlns="http://www.w3.org/2000/svg">
  <g id="Group">
    <path d="M35.652 20.7947C45.649 20.7947 54.631 25.1527 60.722 32.1177C62.792 34.4527 66.658 32.8577 66.346 29.7447C66.1409 27.6643 65.7487 25.6066 65.174 23.5967C62.089 12.6227 53.264 4.0627 42.214 1.1827C19.994 -4.6543 0 11.9227 0 33.1297C0 34.4917 0.0779991 35.8537 0.235001 37.1767C0.625 40.2507 4.765 41.0287 6.249 38.3057C12.0798 27.5012 23.3756 20.7742 35.653 20.7947L35.652 20.7947Z" transform="translate(26.923805 0.03993225)" id="Shape" fill="#FFA30F" fill-rule="evenodd" stroke="none" />
    <path d="M20.8937 30.6026C20.871 21.0202 25.0185 11.9015 32.2564 5.62095C34.6007 3.55864 32.9987 -0.292358 29.8747 0.0176421C27.8047 0.212642 25.7347 0.601642 23.6657 1.14664C12.6537 4.25964 4.06272 13.0146 1.17272 24.0266C-4.64528 46.2066 11.9897 66.1296 33.2727 66.1296C34.6387 66.1296 36.0057 66.0516 37.3327 65.8956C40.4187 65.5066 41.1997 61.3826 38.4657 59.9036C28.0007 54.2996 20.8927 43.2876 20.8927 30.6036L20.8937 30.6026Z" transform="translate(0.017082214 0)" id="Shape" fill="#149EF2" fill-rule="evenodd" stroke="none" />
    <path d="M30.7118 19.2173C20.7148 19.2173 11.7328 14.8593 5.6418 7.89433C3.5718 5.55933 -0.2942 7.15433 0.0177994 10.2673C0.222822 12.3478 0.615083 14.4055 1.18982 16.4154C4.2748 27.3893 13.0998 35.9493 24.1508 38.8293C46.4098 44.6273 66.4038 28.0503 66.4038 6.84334C66.4038 5.48134 66.3248 4.11934 66.1688 2.79634C65.7788 -0.277664 61.6388 -1.05566 60.1548 1.66834C54.4928 12.1353 43.4418 19.2183 30.7118 19.2183L30.7118 19.2173Z" transform="translate(0 52.903305)" id="Shape" fill="#F20057" fill-rule="evenodd" stroke="none" />
    <path d="M19.2856 35.566C19.3083 45.1477 15.1607 54.2666 7.92263 60.5471C5.57863 62.61 7.17963 66.462 10.3046 66.151C12.3346 65.957 14.4046 65.567 16.4746 64.984C27.4856 61.91 36.0766 53.116 38.9656 42.104C44.7856 19.923 28.1496 1.14441e-05 6.86762 1.14441e-05C5.51059 -0.00104713 4.15465 0.0767498 2.80664 0.233007C-0.278378 0.623011 -1.05938 4.74701 1.67362 6.22501C12.1786 11.87 19.2856 22.881 19.2856 35.566L19.2856 35.566Z" transform="translate(53.09218 26.787628)" id="Shape" fill="#8252DE" fill-rule="evenodd" stroke="none" />
  </g>
</svg>